<svg xmlns="http://www.w3.org/2000/svg" viewBox="-11.850034 44.447019999999995 598.6999816894531 523.8479565258789"> <svg xmlns="http://www.w3.org/2000/svg" xmlns:xlink="http://www.w3.org/1999/xlink" version="1.1" id="Livello_1" x="156.699084" y="114.44702" viewBox="502.983154296875 277.5143127441406 554.1622314453125 613.3857421875" xml:space="preserve" height="289.55924220606545" width="261.60176359766245" preserveAspectRatio="xMinYMin" enable-background="new 0 0 1600 1200" style="overflow: visible;"><g id="Livello_1_00000134234841292760494030000005289193891103324065_" style=""></g><g id="Livello_9" style=""></g><path class="st0" d="M751.7,722.4c0,0-27,14.7-19.2,29.3s30,11.1,30,11.1L751.7,722.4z" style="fill: #7ED348; fill-opacity: 1;"></path><path class="st1" d="M762.8,770.5c-4.7,0.6-27.9,2.5-37.3-15.2c-9-16.8,9.9-32.9,22.3-39.7c3.7-2,8.4-0.6,10.5,3    c2,3.7,0.6,8.4-3,10.5c-7.1,3.9-19.1,13.5-16.2,19c5,9.4,21.9,7,22,7c4.2-0.6,8.1,2.2,8.8,6.4c0.6,4.2-2.2,8.1-6.4,8.8    C763.5,770.4,763.3,770.5,762.8,770.5z" style="fill: #FFFFFF; fill-opacity: 1;"></path><path class="st0" d="M889.7,798.4c0-33.3-28.1-60.1-61.9-57.9c-28.2,1.8-51.4,24.3-54,52.4c-1.6,17.5,4.6,33.6,15.6,45.3l0,0    c-68.1,0-51.6,45.1-51.6,45.1h87.8c9.5,0,18.5-4.5,24.2-12.2l26.5-35.6l0,0C884.7,825.4,889.7,812.5,889.7,798.4z" style="fill: #7ED348; fill-opacity: 1;"></path><path class="st1" d="M825.7,890.9h-87.8c-3.2,0-6.1-2-7.2-5c-0.3-0.8-6.9-19.4,4.2-35.3c7.5-10.8,20.9-17.2,39.9-19.4    c-6.7-11.7-9.8-25.3-8.5-39c2.9-31.8,29.2-57.4,61.1-59.4c18.4-1.2,35.9,5.1,49.3,17.6c13.2,12.4,20.8,29.9,20.8,47.9    c0,15.2-5.3,30.1-15,41.8l-26.3,35.4C849,885.2,837.6,890.9,825.7,890.9z M744,875.5h81.6c7.1,0,13.8-3.4,18.1-9.1l26.5-35.6    c0.1-0.1,0.2-0.2,0.3-0.3c7.5-9,11.6-20.4,11.6-32.1c0-14.1-5.7-27.1-15.9-36.7c-10.3-9.6-23.7-14.4-37.8-13.5    c-24.4,1.6-44.6,21.1-46.8,45.5c-1.3,14.7,3.4,28.6,13.5,39.3c2.1,2.2,2.7,5.5,1.5,8.3s-4,4.6-7.1,4.6c-21.2,0-35.7,4.7-41.9,13.5    C743.7,864.8,743.5,871.2,744,875.5z" style="fill: #FFFFFF; fill-opacity: 1;"></path><path class="st0" d="M899.6,636.1l13.6,27.7c9.6,19.6,30.4,31.3,52.2,29.3l51.9-4.8c23.7-2.2,40,23.3,28.1,43.9    c-24.6,42.4-71.8,97.2-150.9,96.1c-128.7-1.8-189.3-121.4-86.7-212.8" style="fill: #7ED348; fill-opacity: 1;"></path><path class="st1" d="M896.9,836c-0.8,0-1.7,0-2.5,0c-33.5-0.5-64.3-8.8-89.1-24c-24-14.8-41.4-35.3-50.3-59.3    c-8.4-22.5-8.8-47-1.4-71c8-25.8,24.6-49.9,49.2-71.8c3.2-2.8,8-2.5,10.8,0.6s2.5,8-0.6,10.8c-22.5,20-37.5,41.9-44.7,64.9    c-6.5,20.7-6.1,41.9,1.1,61.1c7.8,20.8,23,38.6,44,51.6c22.4,13.8,50.5,21.3,81.3,21.8c0.7,0,1.5,0,2.2,0    c40.8,0,97.8-16.3,141.9-92.3c4.1-7.1,3.9-15.5-0.5-22.4c-4.4-7-12-10.7-20.2-9.9l-51.9,4.8c-24.8,2.3-48.8-11.2-59.8-33.5    l-13.6-27.7c-1.9-3.8-0.3-8.4,3.5-10.3c3.8-1.9,8.4-0.3,10.3,3.5l13.6,27.7c8.2,16.7,26.1,26.7,44.6,25l51.9-4.8    c13.9-1.3,27.1,5.2,34.6,17c7.5,11.7,7.8,26.4,0.8,38.4c-16,27.6-35.2,50-57,66.6C966,824.8,933,836,896.9,836z" style="fill: #FFFFFF; fill-opacity: 1;"></path><path class="st1" d="M817.4,749.6c-8.4,0-18.5-2.2-25.2-11.3c-11.4-15.3,4.8-34,16.1-42.6c3.4-2.6,8.2-1.9,10.8,1.5    s1.9,8.2-1.5,10.8c-6.4,4.9-16.8,16.2-13.1,21.2c6.3,8.5,22.7,3.7,22.9,3.6c4-1.3,8.4,1,9.6,5c1.3,4-0.9,8.3-5,9.6    C831.6,747.6,825.3,749.6,817.4,749.6z" style="fill: #FFFFFF; fill-opacity: 1;"></path><path class="st0" d="M860.8,768.3c-4.5,7.3-7.4,15.7-8.2,24.6c-1.6,17.5,4.6,33.6,15.6,45.3l0,0c-68.1,0-51.6,45.1-51.6,45.1h87.8    c9.5,0,18.5-4.5,24.2-12.2l26.5-35.6l0,0c8.4-10.1,13.4-23,13.4-37.1c0-10.9-3-21.2-8.3-29.9" style="fill: #7ED348; fill-opacity: 1;"></path><path class="st1" d="M904.4,890.9h-87.8c-3.2,0-6.1-2-7.2-5c-0.3-0.8-6.9-19.4,4.2-35.3c7.5-10.8,20.9-17.2,39.9-19.4    c-6.7-11.7-9.8-25.3-8.5-39c0.9-9.8,4.1-19.5,9.3-28c2.2-3.6,6.9-4.8,10.6-2.5c3.6,2.2,4.8,6.9,2.5,10.6c-4,6.6-6.4,13.7-7.1,21.3    c-1.3,14.7,3.4,28.6,13.5,39.3c2.1,2.2,2.7,5.5,1.5,8.3s-4,4.6-7.1,4.6c-21.2,0-35.7,4.7-41.9,13.5c-3.9,5.5-4,11.9-3.5,16.2h81.6    c7.1,0,13.8-3.4,18.1-9.1l26.5-35.6c0.1-0.1,0.2-0.2,0.3-0.3c7.5-9,11.6-20.4,11.6-32.1c0-9.2-2.5-18.1-7.2-25.9    c-2.2-3.6-1-8.4,2.6-10.5c3.6-2.2,8.4-1,10.5,2.6c6.1,10.2,9.4,21.9,9.4,33.8c0,15.2-5.3,30.1-15,41.8l-26.3,35.4    C927.7,885.2,916.3,890.9,904.4,890.9z" style="fill: #FFFFFF; fill-opacity: 1;"></path><path class="st2" d="M824.6,286.6c-40.2,5.1-75.4,22.9-102.2,48.8c-25.2,24.3-56.8,40.7-91.3,47.1c-0.5,0.1-1,0.2-1.6,0.3    c-75.3,14.9-127.1,86.2-117.9,162.4c10.1,84,87.9,141.8,170.6,128.3l193.7-31.7l0,0l0,0c99.3-16.2,166.1-111,147.4-210.4    C1005.9,338.8,918.2,274.8,824.6,286.6z" style="fill: #7ED348; fill-opacity: 1;"></path><path class="st1" d="M657.9,683.2c-33.4,0-65.7-10.7-92.9-31.2c-34.2-25.7-55.8-63.3-60.9-105.8c-9.7-80.2,44.8-155.2,124-170.9    c0.6-0.1,1.1-0.2,1.7-0.3c32.9-6.2,63.1-21.8,87.3-45.1c29.2-28.2,66.1-45.8,106.6-50.9l0,0c47.2-6,94.6,6.3,133.4,34.6    c38.8,28.3,65,69.6,73.8,116.4c9.4,50-1.5,100.5-30.7,142.1s-72.9,69.1-123,77.3l-193.7,31.7C674.9,682.5,666.4,683.2,657.9,683.2    z M825.6,294.2L825.6,294.2c-37.2,4.7-71,20.9-97.8,46.7c-26.4,25.5-59.3,42.5-95.2,49.2c-0.5,0.1-1,0.2-1.5,0.3    c-71.4,14.1-120.5,81.7-111.8,153.9c4.6,38.4,24.1,72.2,54.9,95.4C605,662.9,642.9,672.2,681,666l193.7-31.7    c46-7.5,86.2-32.7,112.9-70.9c26.8-38.2,36.8-84.5,28.1-130.4c-8.1-42.9-32.1-80.8-67.8-106.8    C912.3,300.1,868.9,288.8,825.6,294.2z" style="fill: #FFFFFF; fill-opacity: 1;"></path><path class="st1" d="M586.9,619.9c-18.5,0-36.7-1.7-54.6-5.1c-4.2-0.8-6.9-4.8-6.1-9c0.8-4.2,4.8-6.9,9-6.1    c33.5,6.4,68.7,6.5,104.5,0.1c28.8-5.1,58-14.4,86.9-27.5c49.4-22.4,81.1-48.8,81.4-49c3.2-2.7,8.1-2.3,10.8,1    c2.7,3.2,2.3,8.1-0.9,10.8c-1.3,1.1-33.3,27.7-84.5,51c-30.1,13.7-60.6,23.4-90.7,28.8C623.9,618.2,605.3,619.9,586.9,619.9z" style="fill: #FFFFFF; fill-opacity: 1;"></path><path class="st1" d="M591.4,619.9c-4.2,0-7.6-3.4-7.7-7.6c0-0.7-0.2-18.3,3.6-37c5.6-27.3,16.8-43,33.2-46.8    c16.6-3.9,33.5,6.6,50.1,31.1c11.4,16.7,18.6,34.1,18.9,34.9c1.6,3.9-0.3,8.4-4.2,10s-8.4-0.3-10-4.2    c-6.7-16.3-30.6-61.6-51.3-56.8c-21.1,4.9-25.2,52.4-24.9,68.7c0.1,4.2-3.3,7.7-7.6,7.8C591.5,619.9,591.4,619.9,591.4,619.9z" style="fill: #FFFFFF; fill-opacity: 1;"></path><path class="st1" d="M729.8,586.9c-3.8,0-7.2-2.9-7.6-6.8c-0.1-0.7-2-17.4-1.3-35.5c1-27.1,7.1-42.8,18.6-48s26.3,0.1,44.1,15.7    c11.9,10.5,21.1,21.9,21.4,22.4c2.6,3.3,2.1,8.2-1.2,10.8s-8.2,2.1-10.8-1.2c-0.1-0.1-8.8-11-19.7-20.6    c-12-10.6-22.3-15.5-27.5-13.1c-4.1,1.8-8.8,11.9-9.6,34.5c-0.6,16.9,1.2,33,1.2,33.1c0.5,4.2-2.5,8-6.7,8.5    C730.4,586.9,730.1,586.9,729.8,586.9z" style="fill: #FFFFFF; fill-opacity: 1;"></path><ellipse class="st1" cx="871" cy="432.8" rx="27.8" ry="27.8" style="fill: #FFFFFF; fill-opacity: 1;"></ellipse><ellipse class="st1" cx="779.1" cy="387.2" rx="27.8" ry="27.8" style="fill: #FFFFFF; fill-opacity: 1;"></ellipse><ellipse class="st1" cx="596.9" cy="473.4" rx="27.8" ry="27.8" style="fill: #FFFFFF; fill-opacity: 1;"></ellipse><ellipse class="st1" cx="687.9" cy="458.6" rx="27.8" ry="27.8" style="fill: #FFFFFF; fill-opacity: 1;"></ellipse><path class="st1" d="M967.7,499.3c-1.5,0-3-0.4-4.3-1.3c-22.4-15.1-32.5-38-29.2-66.3c2.4-20.5,11.1-36.5,11.4-37.2    c2-3.7,6.7-5.1,10.4-3c3.7,2,5.1,6.7,3.1,10.4l0,0c-0.1,0.1-7.8,14.4-9.7,32c-2.5,22.3,5.1,39.5,22.6,51.3    c3.5,2.4,4.4,7.2,2.1,10.7C972.6,498.1,970.2,499.3,967.7,499.3z" style="fill: #FFFFFF; fill-opacity: 1;"></path><path class="st1" d="M899.4,644.1c-1.7,0-3.4-0.5-4.8-1.7c-3.3-2.6-3.9-7.5-1.2-10.8c14.4-18.1,21.8-36.7,21.3-53.8    c-0.5-18.4-9.5-31-17-38.2c-19.6-19-54.8-25.8-79.8-4.5c-3.2,2.8-8.1,2.4-10.8-0.9c-2.8-3.2-2.4-8.1,0.9-10.8    c14.4-12.3,33-18.2,52.2-16.6c18.1,1.5,35.2,9.2,48.2,21.8c13.5,13.1,21.2,30.4,21.7,48.8c0.6,20.8-8,42.9-24.7,63.8    C903.9,643.1,901.6,644.1,899.4,644.1z" style="fill: #FFFFFF; fill-opacity: 1;"></path><g id="Livello_2_00000044154970415872024360000008308035556632059040_" style=""></g><g id="Livello_7" style=""></g><g id="Livello_16" style=""></g><g id="Livello_5" style=""></g><g id="Livello_11" style=""></g><g id="Livello_12" style=""></g><g id="Livello_13" style=""></g><g id="Livello_15" style=""></g><g id="Livello_14" style=""></g></svg> <svg xmlns="http://www.w3.org/2000/svg" y="427.644975" viewBox="1.9500000476837158 16.8799991607666 458.6999816894531 70.6500015258789" x="58.149966" height="70.6500015258789" width="458.6999816894531" style="overflow: visible;"><g fill="#1d3370" fill-opacity="1" style=""><path d="M41.32 22.88L37.50 29.77Q36.75 28.95 35.32 28.01Q33.90 27.08 31.95 26.25Q30 25.43 27.75 24.90Q25.50 24.38 23.10 24.38L23.10 24.38Q17.85 24.38 15.30 26.33Q12.75 28.27 12.75 31.73L12.75 31.73Q12.75 34.27 14.17 35.74Q15.60 37.20 18.52 38.18Q21.45 39.15 25.88 40.28L25.88 40.28Q31.27 41.55 35.25 43.31Q39.23 45.08 41.32 48Q43.42 50.92 43.42 55.73L43.42 55.73Q43.42 59.77 41.92 62.70Q40.42 65.63 37.73 67.46Q35.02 69.30 31.50 70.16Q27.97 71.03 23.93 71.03L23.93 71.03Q19.95 71.03 16.01 70.20Q12.07 69.38 8.51 67.76Q4.95 66.15 1.95 63.83L1.95 63.83L5.77 56.63Q6.75 57.60 8.59 58.76Q10.42 59.92 12.86 60.98Q15.30 62.02 18.19 62.74Q21.07 63.45 24.07 63.45L24.07 63.45Q29.10 63.45 31.76 61.69Q34.42 59.92 34.42 56.63L34.42 56.63Q34.42 53.92 32.70 52.31Q30.97 50.70 27.68 49.58Q24.38 48.45 19.80 47.33L19.80 47.33Q14.55 45.90 11.03 44.21Q7.50 42.53 5.74 39.86Q3.97 37.20 3.97 33.08L3.97 33.08Q3.97 27.83 6.52 24.19Q9.07 20.55 13.46 18.71Q17.85 16.88 23.32 16.88L23.32 16.88Q26.93 16.88 30.15 17.66Q33.38 18.45 36.19 19.80Q39 21.15 41.32 22.88L41.32 22.88ZM52.12 86.92L52.12 79.72Q53.25 79.88 54.34 80.06Q55.42 80.25 56.10 80.25L56.10 80.25Q57.37 80.25 58.31 79.46Q59.25 78.67 60.22 76.58Q61.20 74.47 62.63 70.50L62.63 70.50L46.50 31.27L55.12 31.27L67.13 62.10L77.77 31.27L85.72 31.27L67.95 79.58Q67.13 81.75 65.55 83.59Q63.97 85.42 61.65 86.47Q59.32 87.53 56.17 87.53L56.17 87.53Q55.27 87.53 54.30 87.38Q53.32 87.22 52.12 86.92L52.12 86.92ZM126.97 46.58L126.97 70.50L118.72 70.50L118.72 48.53Q118.72 43.05 116.96 40.50Q115.20 37.95 111.75 37.95L111.75 37.95Q109.35 37.95 106.99 39.15Q104.63 40.35 102.75 42.41Q100.88 44.48 100.05 47.17L100.05 47.17L100.05 70.50L91.80 70.50L91.80 31.27L99.30 31.27L99.30 39.15Q100.80 36.52 103.24 34.61Q105.67 32.70 108.75 31.65Q111.82 30.60 115.27 30.60L115.27 30.60Q118.80 30.60 121.09 31.88Q123.38 33.15 124.69 35.36Q126 37.58 126.49 40.46Q126.97 43.35 126.97 46.58L126.97 46.58ZM154.35 71.25L154.35 71.25Q149.78 71.25 146.06 69.64Q142.35 68.03 139.65 65.17Q136.95 62.33 135.49 58.65Q134.03 54.98 134.03 50.85L134.03 50.85Q134.03 45.30 136.54 40.73Q139.05 36.15 143.59 33.38Q148.13 30.60 154.35 30.60L154.35 30.60Q160.35 30.60 164.81 33.26Q169.28 35.93 171.38 40.35L171.38 40.35L163.35 42.90Q162 40.42 159.56 39.04Q157.13 37.65 154.20 37.65L154.20 37.65Q150.90 37.65 148.24 39.34Q145.57 41.03 144.04 43.99Q142.50 46.95 142.50 50.85L142.50 50.85Q142.50 54.60 144.07 57.64Q145.65 60.67 148.31 62.44Q150.97 64.20 154.28 64.20L154.28 64.20Q156.30 64.20 158.21 63.49Q160.13 62.77 161.55 61.54Q162.97 60.30 163.57 58.80L163.57 58.80L171.68 61.20Q170.40 64.13 167.89 66.38Q165.38 68.63 161.96 69.94Q158.55 71.25 154.35 71.25ZM196.13 71.25L196.13 71.25Q191.48 71.25 187.80 69.64Q184.13 68.03 181.46 65.17Q178.80 62.33 177.38 58.69Q175.95 55.05 175.95 50.92L175.95 50.92Q175.95 46.80 177.38 43.13Q178.80 39.45 181.46 36.64Q184.13 33.83 187.84 32.21Q191.55 30.60 196.13 30.60L196.13 30.60Q200.70 30.60 204.41 32.21Q208.13 33.83 210.79 36.64Q213.45 39.45 214.88 43.13Q216.30 46.80 216.30 50.92L216.30 50.92Q216.30 55.05 214.88 58.69Q213.45 62.33 210.79 65.17Q208.13 68.03 204.41 69.64Q200.70 71.25 196.13 71.25ZM184.43 51L184.43 51Q184.43 54.75 186 57.75Q187.58 60.75 190.20 62.48Q192.83 64.20 196.13 64.20L196.13 64.20Q199.35 64.20 202.01 62.44Q204.68 60.67 206.25 57.64Q207.83 54.60 207.83 50.92L207.83 50.92Q207.83 47.17 206.25 44.17Q204.68 41.17 202.01 39.41Q199.35 37.65 196.13 37.65L196.13 37.65Q192.83 37.65 190.20 39.45Q187.58 41.25 186 44.21Q184.43 47.17 184.43 51ZM260.03 22.88L256.20 29.77Q255.45 28.95 254.03 28.01Q252.60 27.08 250.65 26.25Q248.70 25.43 246.45 24.90Q244.20 24.38 241.80 24.38L241.80 24.38Q236.55 24.38 234.00 26.33Q231.45 28.27 231.45 31.73L231.45 31.73Q231.45 34.27 232.88 35.74Q234.30 37.20 237.23 38.18Q240.15 39.15 244.58 40.28L244.58 40.28Q249.98 41.55 253.95 43.31Q257.93 45.08 260.03 48Q262.13 50.92 262.13 55.73L262.13 55.73Q262.13 59.77 260.63 62.70Q259.13 65.63 256.43 67.46Q253.73 69.30 250.20 70.16Q246.68 71.03 242.63 71.03L242.63 71.03Q238.65 71.03 234.71 70.20Q230.78 69.38 227.21 67.76Q223.65 66.15 220.65 63.83L220.65 63.83L224.48 56.63Q225.45 57.60 227.29 58.76Q229.13 59.92 231.56 60.98Q234.00 62.02 236.89 62.74Q239.78 63.45 242.78 63.45L242.78 63.45Q247.80 63.45 250.46 61.69Q253.13 59.92 253.13 56.63L253.13 56.63Q253.13 53.92 251.40 52.31Q249.68 50.70 246.38 49.58Q243.08 48.45 238.50 47.33L238.50 47.33Q233.25 45.90 229.73 44.21Q226.20 42.53 224.44 39.86Q222.68 37.20 222.68 33.08L222.68 33.08Q222.68 27.83 225.23 24.19Q227.78 20.55 232.16 18.71Q236.55 16.88 242.03 16.88L242.03 16.88Q245.63 16.88 248.85 17.66Q252.08 18.45 254.89 19.80Q257.70 21.15 260.03 22.88L260.03 22.88ZM266.63 59.02L266.63 59.02Q266.63 55.27 268.76 52.46Q270.90 49.65 274.65 48.11Q278.40 46.58 283.35 46.58L283.35 46.58Q285.98 46.58 288.71 46.95Q291.45 47.33 293.55 48.15L293.55 48.15L293.55 45.67Q293.55 41.55 291.08 39.23Q288.60 36.90 283.95 36.90L283.95 36.90Q280.65 36.90 277.73 38.06Q274.80 39.23 271.50 41.33L271.50 41.33L268.73 35.77Q272.63 33.15 276.56 31.88Q280.50 30.60 284.85 30.60L284.85 30.60Q292.73 30.60 297.26 34.76Q301.80 38.92 301.80 46.58L301.80 46.58L301.80 61.20Q301.80 62.63 302.29 63.23Q302.78 63.83 303.98 63.90L303.98 63.90L303.98 70.50Q302.85 70.72 301.95 70.80Q301.05 70.88 300.45 70.88L300.45 70.88Q297.83 70.88 296.48 69.60Q295.13 68.33 294.90 66.60L294.90 66.60L294.68 64.35Q292.13 67.65 288.15 69.45Q284.18 71.25 280.13 71.25L280.13 71.25Q276.23 71.25 273.15 69.64Q270.08 68.03 268.35 65.25Q266.63 62.48 266.63 59.02ZM291.60 61.42L291.60 61.42Q292.50 60.45 293.03 59.48Q293.55 58.50 293.55 57.75L293.55 57.75L293.55 53.25Q291.45 52.42 289.13 52.01Q286.80 51.60 284.55 51.60L284.55 51.60Q280.05 51.60 277.24 53.40Q274.43 55.20 274.43 58.35L274.43 58.35Q274.43 60.08 275.36 61.65Q276.30 63.23 278.06 64.20Q279.83 65.17 282.45 65.17L282.45 65.17Q285.15 65.17 287.63 64.13Q290.10 63.08 291.60 61.42ZM311.40 55.27L311.40 55.27L311.40 31.27L319.65 31.27L319.65 53.63Q319.65 58.88 321.56 61.54Q323.48 64.20 327.15 64.20L327.15 64.20Q329.48 64.20 331.69 63.23Q333.90 62.25 335.74 60.34Q337.58 58.42 338.70 55.73L338.70 55.73L338.70 31.27L346.95 31.27L346.95 61.20Q346.95 62.63 347.48 63.23Q348.00 63.83 349.20 63.90L349.20 63.90L349.20 70.50Q347.93 70.72 347.10 70.80Q346.28 70.88 345.53 70.88L345.53 70.88Q343.28 70.88 341.78 69.64Q340.28 68.40 340.05 66.45L340.05 66.45L339.90 62.55Q337.28 66.83 333.08 69.04Q328.88 71.25 323.85 71.25L323.85 71.25Q317.70 71.25 314.55 67.20Q311.40 63.15 311.40 55.27ZM379.50 30.98L379.50 38.40Q374.70 38.48 370.99 40.58Q367.28 42.67 365.70 46.50L365.70 46.50L365.70 70.50L357.45 70.50L357.45 31.27L365.10 31.27L365.10 40.05Q367.13 36 370.43 33.56Q373.73 31.13 377.40 30.90L377.40 30.90Q378.15 30.90 378.64 30.90Q379.13 30.90 379.50 30.98L379.50 30.98ZM385.13 55.27L385.13 55.27L385.13 31.27L393.38 31.27L393.38 53.63Q393.38 58.88 395.29 61.54Q397.20 64.20 400.88 64.20L400.88 64.20Q403.20 64.20 405.41 63.23Q407.63 62.25 409.46 60.34Q411.30 58.42 412.43 55.73L412.43 55.73L412.43 31.27L420.68 31.27L420.68 61.20Q420.68 62.63 421.20 63.23Q421.73 63.83 422.93 63.90L422.93 63.90L422.93 70.50Q421.65 70.72 420.83 70.80Q420.00 70.88 419.25 70.88L419.25 70.88Q417.00 70.88 415.50 69.64Q414.00 68.40 413.78 66.45L413.78 66.45L413.63 62.55Q411.00 66.83 406.80 69.04Q402.60 71.25 397.58 71.25L397.58 71.25Q391.43 71.25 388.28 67.20Q385.13 63.15 385.13 55.27ZM445.13 71.25L445.13 71.25Q440.18 71.25 435.75 69.64Q431.33 68.03 428.18 64.80L428.18 64.80L431.25 59.25Q434.63 62.25 438.04 63.60Q441.45 64.95 444.83 64.95L444.83 64.95Q448.28 64.95 450.45 63.64Q452.63 62.33 452.63 59.77L452.63 59.77Q452.63 57.90 451.50 57Q450.38 56.10 448.24 55.42Q446.10 54.75 443.10 53.92L443.10 53.92Q438.90 52.65 436.05 51.26Q433.20 49.88 431.78 47.85Q430.35 45.83 430.35 42.67L430.35 42.67Q430.35 38.85 432.30 36.15Q434.25 33.45 437.74 32.02Q441.23 30.60 445.80 30.60L445.80 30.60Q450.08 30.60 453.71 31.91Q457.35 33.23 460.13 36L460.13 36L456.60 41.48Q453.98 39.08 451.24 37.95Q448.50 36.83 445.35 36.83L445.35 36.83Q443.55 36.83 441.90 37.24Q440.25 37.65 439.16 38.74Q438.08 39.83 438.08 41.78L438.08 41.78Q438.08 43.35 438.98 44.33Q439.88 45.30 441.68 45.98Q443.48 46.65 446.10 47.48L446.10 47.48Q450.68 48.83 453.90 50.14Q457.13 51.45 458.89 53.51Q460.65 55.58 460.65 59.17L460.65 59.17Q460.65 64.88 456.41 68.06Q452.18 71.25 445.13 71.25Z" transform="translate(0, 0)"></path></g></svg></svg>